<svg xmlns="http://www.w3.org/2000/svg" xmlns:xlink="http://www.w3.org/1999/xlink" width="3800" zoomAndPan="magnify" viewBox="0 0 2850 2250.000011" height="3000" preserveAspectRatio="xMidYMid meet" version="1.0"><defs><g/><clipPath id="07b9fb914e"><path d="M 0.632812 0 L 2849.367188 0 L 2849.367188 2249 L 0.632812 2249 Z M 0.632812 0 " clip-rule="nonzero"/></clipPath><clipPath id="4b16784aff"><path d="M 143.214844 175.882812 L 1078 175.882812 L 1078 1902.226562 L 143.214844 1902.226562 Z M 143.214844 175.882812 " clip-rule="nonzero"/></clipPath><clipPath id="21db7c1ea8"><path d="M 240 366 L 1081.53125 366 L 1081.53125 1145 L 240 1145 Z M 240 366 " clip-rule="nonzero"/></clipPath></defs><g clip-path="url(#07b9fb914e)"><path fill="#ffffff" d="M 0.632812 0 L 2849.367188 0 L 2849.367188 2249 L 0.632812 2249 Z M 0.632812 0 " fill-opacity="1" fill-rule="nonzero"/><path fill="#ffffff" d="M 0.632812 0 L 2849.367188 0 L 2849.367188 2249 L 0.632812 2249 Z M 0.632812 0 " fill-opacity="1" fill-rule="nonzero"/></g><g clip-path="url(#4b16784aff)"><path fill="#fdb400" d="M 653.421875 1073.964844 C 121.113281 1136.589844 48.226562 1526.558594 238.832031 1902.226562 C 159.59375 1516.824219 305.128906 1268.609375 606.914062 1204.25 C 795.914062 1163.964844 1039.507812 1078.136719 1076.070312 858.636719 C 1076.78125 854.542969 1077.015625 850.238281 1077.515625 846.011719 C 990.742188 983.992188 843.238281 1051.628906 653.421875 1073.964844 Z M 921.292969 385.488281 C 948.117188 307.511719 960.953125 298.324219 1043.445312 298.011719 C 965.441406 271.160156 956.253906 258.351562 955.914062 175.859375 C 929.089844 253.835938 916.253906 263.050781 833.789062 263.390625 C 911.765625 290.1875 920.953125 303.023438 921.292969 385.488281 " fill-opacity="1" fill-rule="nonzero"/></g><g clip-path="url(#21db7c1ea8)"><path fill="#3473c8" d="M 610.378906 750.972656 C 675.496094 750.972656 728.304688 698.164062 728.304688 633.019531 C 728.304688 567.878906 675.496094 515.070312 610.378906 515.070312 C 545.234375 515.070312 492.425781 567.878906 492.425781 633.019531 C 492.425781 698.164062 545.234375 750.972656 610.378906 750.972656 Z M 1015.257812 366.566406 C 1098.144531 511.289062 984.128906 730.238281 595.46875 833.046875 C 362.269531 894.726562 270.535156 1021.917969 240.535156 1144.253906 C 319.75 1057.613281 444.367188 984.59375 620.0625 952.941406 C 810.21875 918.742188 1048.773438 814.332031 1078.984375 593.914062 C 1089.195312 519.292969 1069.089844 434.152344 1015.257812 366.566406 " fill-opacity="1" fill-rule="nonzero"/></g><g fill="#3473c8" fill-opacity="1"><g transform="translate(364.700257, 1788.957286)"><g><path d="M 247.953125 0 L 184.671875 -91.40625 L 114.84375 -91.40625 L 114.84375 0 L 38.90625 0 L 38.90625 -328.109375 L 180.921875 -328.109375 C 209.984375 -328.109375 235.21875 -323.265625 256.625 -313.578125 C 278.03125 -303.890625 294.515625 -290.140625 306.078125 -272.328125 C 317.640625 -254.515625 323.421875 -233.421875 323.421875 -209.046875 C 323.421875 -184.671875 317.5625 -163.65625 305.84375 -146 C 294.125 -128.34375 277.484375 -114.832031 255.921875 -105.46875 L 329.515625 0 Z M 246.546875 -209.046875 C 246.546875 -227.484375 240.609375 -241.625 228.734375 -251.46875 C 216.859375 -261.3125 199.515625 -266.234375 176.703125 -266.234375 L 114.84375 -266.234375 L 114.84375 -151.859375 L 176.703125 -151.859375 C 199.515625 -151.859375 216.859375 -156.859375 228.734375 -166.859375 C 240.609375 -176.859375 246.546875 -190.921875 246.546875 -209.046875 Z M 246.546875 -209.046875 "/></g></g></g><g fill="#3473c8" fill-opacity="1"><g transform="translate(797.796881, 1788.957286)"><g><path d="M 280.765625 -125.140625 C 280.765625 -124.203125 280.296875 -117.644531 279.359375 -105.46875 L 88.59375 -105.46875 C 92.03125 -89.84375 100.148438 -77.5 112.953125 -68.4375 C 125.765625 -59.375 141.703125 -54.84375 160.765625 -54.84375 C 173.890625 -54.84375 185.53125 -56.796875 195.6875 -60.703125 C 205.84375 -64.609375 215.296875 -70.78125 224.046875 -79.21875 L 262.953125 -37.03125 C 239.203125 -9.84375 204.515625 3.75 158.890625 3.75 C 130.460938 3.75 105.3125 -1.796875 83.4375 -12.890625 C 61.5625 -23.984375 44.6875 -39.375 32.8125 -59.0625 C 20.9375 -78.75 15 -101.085938 15 -126.078125 C 15 -150.765625 20.859375 -173.03125 32.578125 -192.875 C 44.296875 -212.71875 60.390625 -228.1875 80.859375 -239.28125 C 101.328125 -250.375 124.210938 -255.921875 149.515625 -255.921875 C 174.203125 -255.921875 196.546875 -250.609375 216.546875 -239.984375 C 236.546875 -229.359375 252.25 -214.125 263.65625 -194.28125 C 275.0625 -174.4375 280.765625 -151.390625 280.765625 -125.140625 Z M 149.984375 -200.609375 C 133.421875 -200.609375 119.515625 -195.921875 108.265625 -186.546875 C 97.023438 -177.171875 90.15625 -164.359375 87.65625 -148.109375 L 211.859375 -148.109375 C 209.359375 -164.046875 202.484375 -176.78125 191.234375 -186.3125 C 179.984375 -195.84375 166.234375 -200.609375 149.984375 -200.609375 Z M 149.984375 -200.609375 "/></g></g></g><g fill="#3473c8" fill-opacity="1"><g transform="translate(1182.146758, 1788.957286)"><g><path d="M 438.71875 -252.171875 L 347.328125 0 L 277.015625 0 L 220.296875 -156.546875 L 161.703125 0 L 91.40625 0 L 0.46875 -252.171875 L 69.375 -252.171875 L 128.890625 -81.5625 L 190.765625 -252.171875 L 252.640625 -252.171875 L 312.640625 -81.5625 L 374.03125 -252.171875 Z M 438.71875 -252.171875 "/></g></g></g><g fill="#3473c8" fill-opacity="1"><g transform="translate(1709.924603, 1788.957286)"><g><path d="M 180.921875 -328.109375 C 209.984375 -328.109375 235.21875 -323.265625 256.625 -313.578125 C 278.03125 -303.890625 294.515625 -290.140625 306.078125 -272.328125 C 317.640625 -254.515625 323.421875 -233.421875 323.421875 -209.046875 C 323.421875 -184.984375 317.640625 -163.96875 306.078125 -146 C 294.515625 -128.03125 278.03125 -114.28125 256.625 -104.75 C 235.21875 -95.226562 209.984375 -90.46875 180.921875 -90.46875 L 114.84375 -90.46875 L 114.84375 0 L 38.90625 0 L 38.90625 -328.109375 Z M 176.703125 -152.328125 C 199.515625 -152.328125 216.859375 -157.25 228.734375 -167.09375 C 240.609375 -176.9375 246.546875 -190.921875 246.546875 -209.046875 C 246.546875 -227.484375 240.609375 -241.625 228.734375 -251.46875 C 216.859375 -261.3125 199.515625 -266.234375 176.703125 -266.234375 L 114.84375 -266.234375 L 114.84375 -152.328125 Z M 176.703125 -152.328125 "/></g></g></g><g fill="#3473c8" fill-opacity="1"><g transform="translate(2141.615034, 1788.957286)"><g><path d="M 135.453125 -255.921875 C 174.515625 -255.921875 204.515625 -246.625 225.453125 -228.03125 C 246.390625 -209.4375 256.859375 -181.390625 256.859375 -143.890625 L 256.859375 0 L 188.421875 0 L 188.421875 -31.40625 C 174.671875 -7.96875 149.050781 3.75 111.5625 3.75 C 92.1875 3.75 75.390625 0.46875 61.171875 -6.09375 C 46.953125 -12.65625 36.09375 -21.71875 28.59375 -33.28125 C 21.09375 -44.84375 17.34375 -57.96875 17.34375 -72.65625 C 17.34375 -96.09375 26.171875 -114.523438 43.828125 -127.953125 C 61.484375 -141.390625 88.742188 -148.109375 125.609375 -148.109375 L 183.734375 -148.109375 C 183.734375 -164.046875 178.890625 -176.3125 169.203125 -184.90625 C 159.515625 -193.5 144.984375 -197.796875 125.609375 -197.796875 C 112.179688 -197.796875 98.984375 -195.6875 86.015625 -191.46875 C 73.046875 -187.25 62.03125 -181.546875 52.96875 -174.359375 L 26.71875 -225.453125 C 40.46875 -235.140625 56.953125 -242.640625 76.171875 -247.953125 C 95.390625 -253.265625 115.148438 -255.921875 135.453125 -255.921875 Z M 129.828125 -45.46875 C 142.328125 -45.46875 153.421875 -48.359375 163.109375 -54.140625 C 172.796875 -59.921875 179.671875 -68.4375 183.734375 -79.6875 L 183.734375 -105.46875 L 133.578125 -105.46875 C 103.585938 -105.46875 88.59375 -95.625 88.59375 -75.9375 C 88.59375 -66.5625 92.265625 -59.140625 99.609375 -53.671875 C 106.953125 -48.203125 117.023438 -45.46875 129.828125 -45.46875 Z M 129.828125 -45.46875 "/></g></g></g><g fill="#3473c8" fill-opacity="1"><g transform="translate(2519.402892, 1788.957286)"><g><path d="M 241.390625 -56.25 L 241.390625 0 L 16.40625 0 L 16.40625 -44.0625 L 144.828125 -195.921875 L 19.6875 -195.921875 L 19.6875 -252.171875 L 237.171875 -252.171875 L 237.171875 -208.109375 L 108.75 -56.25 Z M 241.390625 -56.25 "/></g></g></g></svg>