<svg width="195" height="62" viewBox="0 0 195 62" fill="none" xmlns="http://www.w3.org/2000/svg">
<path d="M3.51736 46V13.7956H9.3644V41.0209H24.8042V46H3.51736ZM28.2542 18.8661V13.2931H34.6494V18.8661H28.2542ZM28.6196 46V23.6625H34.3296V46H28.6196ZM40.2626 46V23.6625H45.8356V27.1342C46.5969 25.8551 47.6171 24.8806 48.8962 24.2106C50.2057 23.5407 51.6674 23.2057 53.2814 23.2057C58.5499 23.2057 61.1841 26.2662 61.1841 32.3874V46H55.4741V32.6614C55.4741 30.9256 55.1391 29.6618 54.4691 28.87C53.8296 28.0782 52.8246 27.6823 51.4542 27.6823C49.7793 27.6823 48.4394 28.2153 47.4344 29.2811C46.4599 30.3165 45.9726 31.7022 45.9726 33.438V46H40.2626ZM77.9925 46.4568C75.4649 46.4568 73.2875 45.9848 71.4603 45.0407C69.6331 44.0967 68.217 42.7567 67.2121 41.0209C66.2375 39.285 65.7503 37.2294 65.7503 34.8541C65.7503 32.5396 66.2223 30.5145 67.1664 28.7786C68.1409 27.0428 69.4656 25.6876 71.1405 24.7131C72.8459 23.7082 74.7797 23.2057 76.9419 23.2057C80.109 23.2057 82.6062 24.2106 84.4334 26.2206C86.2911 28.2305 87.2199 30.9713 87.2199 34.443V36.1331H71.2319C71.6582 40.1225 73.9422 42.1172 78.0839 42.1172C79.3325 42.1172 80.5811 41.9345 81.8297 41.569C83.0782 41.1731 84.2202 40.5641 85.2557 39.7418L86.8545 43.579C85.7886 44.4621 84.4486 45.1625 82.8346 45.6802C81.2206 46.1979 79.6066 46.4568 77.9925 46.4568ZM77.1703 27.0885C75.4954 27.0885 74.1402 27.6062 73.1048 28.6416C72.0694 29.677 71.4451 31.0779 71.2319 32.8442H82.4692C82.3474 30.9865 81.8297 29.5704 80.9161 28.5959C80.0329 27.591 78.7843 27.0885 77.1703 27.0885ZM101.885 46.4568C95.977 46.4568 93.023 43.5333 93.023 37.6862V27.9564H88.7291V23.6625H93.023V16.9932H98.733V23.6625H105.494V27.9564H98.733V37.3665C98.733 38.8282 99.0528 39.9246 99.6923 40.6554C100.332 41.3863 101.367 41.7518 102.799 41.7518C103.225 41.7518 103.666 41.7061 104.123 41.6147C104.58 41.4929 105.052 41.3711 105.539 41.2493L106.407 45.4518C105.859 45.7564 105.159 46 104.306 46.1827C103.484 46.3654 102.677 46.4568 101.885 46.4568ZM119.285 46.4568C116.94 46.4568 114.899 45.9848 113.164 45.0407C111.428 44.0662 110.088 42.6958 109.144 40.9295C108.2 39.1632 107.728 37.0924 107.728 34.717C107.728 32.3417 108.2 30.3013 109.144 28.5959C110.088 26.8601 111.428 25.5354 113.164 24.6218C114.899 23.6777 116.94 23.2057 119.285 23.2057C120.716 23.2057 122.132 23.4341 123.533 23.8909C124.934 24.3477 126.091 24.9872 127.005 25.8094L125.315 29.7836C124.523 29.0832 123.624 28.5502 122.619 28.1848C121.645 27.8194 120.701 27.6366 119.787 27.6366C117.808 27.6366 116.27 28.2609 115.174 29.5095C114.108 30.7277 113.575 32.4787 113.575 34.7627C113.575 37.0163 114.108 38.7978 115.174 40.1073C116.27 41.3863 117.808 42.0258 119.787 42.0258C120.67 42.0258 121.614 41.8431 122.619 41.4777C123.624 41.1122 124.523 40.5641 125.315 39.8332L127.005 43.853C126.091 44.6448 124.919 45.2843 123.487 45.7716C122.086 46.2284 120.686 46.4568 119.285 46.4568ZM137.728 46.4568C136.114 46.4568 134.667 46.1523 133.388 45.5432C132.14 44.9037 131.15 44.051 130.419 42.9851C129.719 41.9193 129.369 40.7163 129.369 39.3764C129.369 37.7319 129.795 36.4377 130.648 35.4936C131.5 34.5191 132.886 33.8187 134.805 33.3923C136.723 32.966 139.296 32.7528 142.524 32.7528H144.123V31.7935C144.123 30.2709 143.788 29.1745 143.118 28.5046C142.448 27.8346 141.322 27.4996 139.738 27.4996C138.489 27.4996 137.21 27.6975 135.901 28.0934C134.591 28.4589 133.267 29.0375 131.927 29.8293L130.282 25.9465C131.074 25.3983 132.003 24.9263 133.069 24.5304C134.165 24.1041 135.307 23.7843 136.495 23.5711C137.713 23.3275 138.855 23.2057 139.921 23.2057C143.179 23.2057 145.6 23.967 147.184 25.4897C148.767 26.9819 149.559 29.3116 149.559 32.4787V46H144.215V42.437C143.697 43.6855 142.875 44.6753 141.748 45.4062C140.621 46.1066 139.281 46.4568 137.728 46.4568ZM138.916 42.5283C140.408 42.5283 141.641 42.0106 142.616 40.9752C143.621 39.9398 144.123 38.6303 144.123 37.0467V36.0418H142.57C139.708 36.0418 137.713 36.2702 136.586 36.727C135.49 37.1533 134.942 37.9451 134.942 39.1023C134.942 40.1073 135.292 40.9295 135.992 41.569C136.693 42.2086 137.667 42.5283 138.916 42.5283ZM155.355 46V23.6625H160.928V27.591C162.024 24.9415 164.369 23.4798 167.963 23.2057L169.698 23.0686L170.064 27.9107L166.775 28.2305C163.029 28.5959 161.156 30.5145 161.156 33.9862V46H155.355ZM183.895 46.4568C181.368 46.4568 179.19 45.9848 177.363 45.0407C175.536 44.0967 174.12 42.7567 173.115 41.0209C172.14 39.285 171.653 37.2294 171.653 34.8541C171.653 32.5396 172.125 30.5145 173.069 28.7786C174.044 27.0428 175.368 25.6876 177.043 24.7131C178.749 23.7082 180.682 23.2057 182.845 23.2057C186.012 23.2057 188.509 24.2106 190.336 26.2206C192.194 28.2305 193.123 30.9713 193.123 34.443V36.1331H177.135C177.561 40.1225 179.845 42.1172 183.987 42.1172C185.235 42.1172 186.484 41.9345 187.732 41.569C188.981 41.1731 190.123 40.5641 191.158 39.7418L192.757 43.579C191.691 44.4621 190.351 45.1625 188.737 45.6802C187.123 46.1979 185.509 46.4568 183.895 46.4568ZM183.073 27.0885C181.398 27.0885 180.043 27.6062 179.007 28.6416C177.972 29.677 177.348 31.0779 177.135 32.8442H188.372C188.25 30.9865 187.732 29.5704 186.819 28.5959C185.936 27.591 184.687 27.0885 183.073 27.0885Z" fill="#52A2E9"/>
<rect x="146" y="14" width="34" height="3" rx="1.5" fill="#FFC22D"/>
<rect x="181" y="14" width="6" height="3" rx="1.5" fill="#FFC22D"/>
<rect x="188" y="14" width="3" height="3" rx="1.5" fill="#FFC22D"/>
</svg>
